<svg width="221" height="20" viewBox="0 0 221 20" fill="none" xmlns="http://www.w3.org/2000/svg">
<g clip-path="url(#clip0_118_640)">
<path d="M203.11 0.281289V5.4604H206.086L206.247 3.2843H209.813V16.9803L207.73 17.3821V19.7189H215.792V17.3821L213.709 16.9803V3.2843H217.288L217.449 5.4604H220.439V0.281289H203.11ZM201.922 2.99304C201.128 2.09582 200.127 1.37268 198.919 0.823639C197.707 0.274593 196.351 0.00341797 194.848 0.00341797C192.223 0.00341797 190.08 0.910683 188.427 2.72521C186.773 4.53974 185.942 6.8598 185.942 9.68202V10.3349C185.942 13.1638 186.773 15.4838 188.44 17.2917C190.104 19.0995 192.24 20.0001 194.848 20.0001C196.351 20.0001 197.71 19.7322 198.925 19.1932C200.141 18.6542 201.138 17.9311 201.922 17.0238V13.1805H199.026L198.624 15.7717C198.276 16.1534 197.784 16.4581 197.148 16.679C196.512 16.9 195.812 17.0138 195.045 17.0138C193.391 17.0138 192.109 16.3944 191.202 15.1591C190.295 13.9204 189.839 12.3168 189.839 10.3382V9.65859C189.839 7.68336 190.295 6.07975 191.209 4.85109C192.119 3.62243 193.422 3.00978 195.112 3.00978C195.906 3.00978 196.592 3.12026 197.174 3.34456C197.757 3.56887 198.239 3.87017 198.624 4.25183L199.026 6.84306H201.922V2.99974V2.99304ZM181.081 8.17215H174.5V3.2843H180.72L180.894 5.6077H183.884V0.281289H168.53V2.63147L170.599 3.03321V16.9837L168.53 17.3854V19.7222H183.91V14.4092H180.947L180.773 16.7326H174.5V11.1785H181.081V8.1755V8.17215ZM155.701 3.2843H158.463C159.515 3.2843 160.308 3.54543 160.847 4.06435C161.386 4.58661 161.654 5.28296 161.654 6.1534C161.654 7.02384 161.383 7.69341 160.84 8.15541C160.298 8.61741 159.484 8.84841 158.396 8.84841H155.698V3.2843H155.701ZM149.732 0.281289V2.63147L151.801 3.03321V16.9837L149.732 17.3854V19.7222H157.784V17.3854L155.701 16.9837V11.8581H158.892C159.809 11.8849 160.519 12.1661 161.021 12.7051C161.523 13.2441 161.774 13.984 161.774 14.9281V16.0362C161.774 17.1209 162.032 18.0081 162.548 18.6944C163.063 19.3807 163.957 19.7222 165.233 19.7222H167.248V17.372L166.766 17.3051C166.374 17.2615 166.093 17.1209 165.926 16.8832C165.755 16.6489 165.671 16.3174 165.671 15.8889V14.9013C165.671 13.7363 165.42 12.7587 164.918 11.9719C164.416 11.1852 163.589 10.6228 162.441 10.2846C163.455 9.83937 164.225 9.25685 164.751 8.53706C165.276 7.81728 165.537 6.96693 165.537 5.98601C165.537 4.20496 164.911 2.81226 163.656 1.80121C162.4 0.79016 160.67 0.284637 158.463 0.284637H149.732V0.281289ZM142.283 3.02987V16.9803L140.201 17.3821V19.7189H148.252V17.3821L146.17 16.9803V3.02987L148.252 2.62812V0.281289H140.201V2.63147L142.283 3.03321V3.02987ZM129.92 3.2843C131.316 3.2843 132.41 3.75635 133.204 4.70044C133.997 5.64453 134.392 6.86649 134.392 8.37302V11.6171C134.392 13.1403 133.997 14.3724 133.204 15.3164C132.41 16.2605 131.316 16.7326 129.92 16.7326H127.342V3.2843H129.92ZM123.445 0.281289H121.376V2.63147L123.445 3.03321V16.9837L121.376 17.3854V19.7222H130.121C132.498 19.7222 134.456 18.9689 135.996 17.4591C137.536 15.9492 138.306 14.0041 138.306 11.6171V8.3998C138.306 6.02284 137.536 4.07774 135.996 2.55782C134.456 1.04125 132.498 0.281289 130.121 0.281289H123.445Z" fill="#3B82F6"/>
<path d="M110.646 3.65926H110.726L113.743 12.0021H107.576L110.646 3.65926ZM101.342 19.7189H106.91V18.0382L105.44 17.7838L106.763 14.205H114.546L115.829 17.7838L114.359 18.0382V19.7189H119.94V18.0382L118.51 17.8374L111.835 0.281289H109.578L102.782 17.8374L101.339 18.0382V19.7189H101.342ZM94.8811 2.35025V17.6633L92.705 18.0382V19.7189H99.6886V18.0382L97.5125 17.6633V2.35025L99.6886 1.9753V0.281289H92.705V1.9753L94.8811 2.35025ZM89.6752 10.5458H83.8534V12.4808L87.0438 12.6147V16.8732C86.6354 17.141 86.0897 17.3854 85.4135 17.6064C84.7372 17.8273 83.8701 17.9411 82.8088 17.9411C80.8771 17.9411 79.3606 17.2247 78.2625 15.7918C77.1644 14.359 76.6153 12.4808 76.6153 10.1574V9.80924C76.6153 7.52267 77.1811 5.65792 78.316 4.2217C79.4509 2.78547 81.0679 2.06569 83.1704 2.06569C84.0341 2.06569 84.774 2.18286 85.3934 2.41386C86.0127 2.64486 86.5383 2.93947 86.9769 3.29435L87.6163 5.97931H89.4576V2.45739C88.7111 1.71751 87.7904 1.12494 86.7024 0.676334C85.611 0.227723 84.3455 0.00341797 82.9059 0.00341797C80.2076 0.00341797 78.0482 0.910683 76.4245 2.72521C74.8008 4.53974 73.9873 6.91336 73.9873 9.84272V10.1641C73.9873 13.0734 74.8075 15.4437 76.4513 17.2682C78.0951 19.0928 80.2143 20.0034 82.8122 20.0034C84.5932 20.0034 86.0395 19.7389 87.151 19.21C88.2625 18.681 89.1061 18.1186 89.6752 17.5227V10.5525V10.5458ZM60.5022 2.35025H64.2283C65.5708 2.35025 66.5651 2.64821 67.2046 3.24413C67.844 3.84004 68.1654 4.65022 68.1654 5.67466C68.1654 6.75267 67.8306 7.56954 67.1644 8.13198C66.4982 8.69106 65.4302 8.97228 63.9605 8.97228H60.5022V2.35025ZM55.6947 0.29468V1.9753L57.8708 2.35025V17.6633L55.6947 18.0382V19.7189H62.6783V18.0382L60.5022 17.6633V11.0412H64.7205C65.7516 11.0412 66.5751 11.3626 67.1912 12.0021C67.8038 12.6415 68.1118 13.4919 68.1118 14.5531V16.063C68.1118 17.0774 68.3261 17.9411 68.7579 18.6542C69.1898 19.3673 69.9163 19.7222 70.9407 19.7222H72.3569V18.0014L71.7174 17.9211C71.3693 17.8675 71.1215 17.7001 70.9709 17.4122C70.8202 17.1276 70.7432 16.6857 70.7432 16.0898V14.5264C70.7432 13.378 70.5089 12.4139 70.0435 11.6305C69.5748 10.8471 68.8115 10.2813 67.7536 9.93646C68.7312 9.51798 69.4844 8.9455 70.01 8.21567C70.5356 7.48584 70.7968 6.64888 70.7968 5.70479C70.7968 3.9773 70.231 2.64486 69.1028 1.70747C67.9712 0.770073 66.3475 0.298028 64.2283 0.298028H55.698L55.6947 0.29468ZM53.3311 19.7189V15.0587H51.088L50.8738 17.6633H43.0633V10.7065H50.4988V8.6375H43.0633V2.35025H50.7131L50.9273 4.95487H53.1838V0.281289H38.2591V1.9753L40.4352 2.35025V17.6633L38.2591 18.0382V19.7189H53.3311ZM29.4911 0.281289V1.9753L31.6672 2.35025V15.2461L31.5869 15.2729L22.2431 0.281289H17.4356V1.9753L19.6116 2.35025V17.6633L17.4356 18.0382V19.7189H24.4191V18.0382L22.2431 17.6633V4.74061L22.3234 4.71383L31.6672 19.7189H34.2986V2.35025L36.4747 1.9753V0.281289H29.4945H29.4911ZM15.072 19.7189V15.0587H12.8289L12.6147 17.6633H4.8075V10.7065H12.2431V8.6375H4.8075V2.35025H12.4573L12.6716 4.95487H14.928V0.281289H0V1.9753L2.1761 2.35025V17.6633L0 18.0382V19.7189H15.072Z" fill="white"/>
</g>
<defs>
<clipPath id="clip0_118_640">
<rect width="220.439" height="20" fill="white"/>
</clipPath>
</defs>
</svg>
