<svg width="265" height="24" viewBox="0 0 265 24" fill="none" xmlns="http://www.w3.org/2000/svg">
<g clip-path="url(#clip0_118_558)">
<path d="M243.732 0.337351V6.55228H247.304L247.496 3.94097H251.775V20.3762L249.276 20.8583V23.6624H258.95V20.8583L256.451 20.3762V3.94097H260.746L260.939 6.55228H264.526V0.337351H243.732ZM242.306 3.59145C241.354 2.51479 240.153 1.64703 238.702 0.988171C237.248 0.329316 235.621 0.00390625 233.817 0.00390625C230.668 0.00390625 228.096 1.09262 226.112 3.27006C224.127 5.44749 223.131 8.23156 223.131 11.6182V12.4016C223.131 15.7963 224.127 18.5804 226.128 20.7498C228.125 22.9192 230.688 23.9999 233.817 23.9999C235.621 23.9999 237.252 23.6785 238.71 23.0317C240.169 22.3849 241.366 21.5171 242.306 20.4284V15.8164H238.831L238.349 18.9259C237.931 19.3839 237.34 19.7495 236.577 20.0146C235.814 20.2798 234.974 20.4164 234.054 20.4164C232.07 20.4164 230.531 19.6731 229.442 18.1907C228.354 16.7043 227.807 14.7799 227.807 12.4056V11.5901C227.807 9.21984 228.354 7.2955 229.45 5.82111C230.543 4.34672 232.106 3.61154 234.135 3.61154C235.087 3.61154 235.91 3.74411 236.609 4.01328C237.308 4.28245 237.887 4.64401 238.349 5.102L238.831 8.21147H242.306V3.59949V3.59145ZM217.298 9.80638H209.399V3.94097H216.864L217.073 6.72905H220.66V0.337351H202.236V3.15757L204.719 3.63966V20.3802L202.236 20.8623V23.6664H220.692V17.2908H217.137L216.928 20.0789H209.399V13.414H217.298V9.8104V9.80638ZM186.842 3.94097H190.156C191.417 3.94097 192.37 4.25432 193.016 4.87702C193.663 5.50374 193.985 6.33936 193.985 7.38389C193.985 8.42841 193.659 9.23189 193.008 9.7863C192.358 10.3407 191.381 10.6179 190.076 10.6179H186.838V3.94097H186.842ZM179.679 0.337351V3.15757L182.161 3.63966V20.3802L179.679 20.8623V23.6664H189.34V20.8623L186.842 20.3802V14.2295H190.67C191.771 14.2617 192.623 14.5992 193.225 15.246C193.828 15.8928 194.129 16.7806 194.129 17.9135V19.2433C194.129 20.5449 194.439 21.6095 195.057 22.4331C195.676 23.2567 196.749 23.6664 198.279 23.6664H200.698V20.8462L200.119 20.7659C199.649 20.7136 199.312 20.5449 199.111 20.2597C198.906 19.9785 198.805 19.5807 198.805 19.0665V17.8814C198.805 16.4833 198.504 15.3102 197.902 14.3661C197.299 13.4221 196.307 12.7471 194.929 12.3414C196.146 11.8071 197.07 11.108 197.701 10.2443C198.331 9.38054 198.645 8.36012 198.645 7.18301C198.645 5.04575 197.894 3.37451 196.387 2.16125C194.88 0.947997 192.803 0.341369 190.156 0.341369H179.679V0.337351ZM170.74 3.63564V20.3762L168.241 20.8583V23.6624H177.903V20.8583L175.404 20.3762V3.63564L177.903 3.15355V0.337351H168.241V3.15757L170.74 3.63966V3.63564ZM155.904 3.94097C157.579 3.94097 158.893 4.50742 159.845 5.64033C160.797 6.77324 161.271 8.23959 161.271 10.0474V13.9403C161.271 15.7682 160.797 17.2466 159.845 18.3795C158.893 19.5124 157.579 20.0789 155.904 20.0789H152.81V3.94097H155.904ZM148.134 0.337351H145.651V3.15757L148.134 3.63966V20.3802L145.651 20.8623V23.6664H156.145C158.997 23.6664 161.347 22.7625 163.195 20.9507C165.043 19.1388 165.967 16.8047 165.967 13.9403V10.0796C165.967 7.22721 165.043 4.89309 163.195 3.06919C161.347 1.2493 158.997 0.337351 156.145 0.337351H148.134Z" fill="#3B82F6"/>
<path d="M132.775 4.39092H132.872L136.491 14.4023H129.091L132.775 4.39092ZM121.611 23.6624H128.292V21.6457L126.528 21.3404L128.115 17.0458H137.456L138.994 21.3404L137.231 21.6457V23.6624H143.928V21.6457L142.212 21.4046L134.202 0.337351H131.494L123.338 21.4046L121.607 21.6457V23.6624H121.611ZM113.857 2.82011V21.1957L111.246 21.6457V23.6624H119.626V21.6457L117.015 21.1957V2.82011L119.626 2.37016V0.337351H111.246V2.37016L113.857 2.82011ZM107.61 12.6547H100.624V14.9768L104.453 15.1375V20.2476C103.963 20.569 103.308 20.8623 102.496 21.1274C101.685 21.3926 100.644 21.5292 99.3706 21.5292C97.0526 21.5292 95.2327 20.6695 93.915 18.95C92.5973 17.2306 91.9384 14.9768 91.9384 12.1887V11.7709C91.9384 9.02701 92.6173 6.78931 93.9792 5.06584C95.3411 3.34237 97.2815 2.47863 99.8045 2.47863C100.841 2.47863 101.729 2.61924 102.472 2.89644C103.215 3.17364 103.846 3.52717 104.372 3.95302L105.14 7.17498H107.349V2.94867C106.453 2.06082 105.349 1.34974 104.043 0.811405C102.733 0.273073 101.215 0.00390625 99.4871 0.00390625C96.2491 0.00390625 93.6579 1.09262 91.7094 3.27006C89.761 5.4475 88.7847 8.29584 88.7847 11.8111V12.1967C88.7847 15.6879 89.769 18.5322 91.7415 20.7217C93.7141 22.9112 96.2571 24.0039 99.3746 24.0039C101.512 24.0039 103.247 23.6865 104.581 23.0518C105.915 22.417 106.927 21.7421 107.61 21.027V12.6628V12.6547ZM72.6026 2.82011H77.074C78.685 2.82011 79.8781 3.17766 80.6455 3.89276C81.4128 4.60786 81.7985 5.58007 81.7985 6.8094C81.7985 8.103 81.3967 9.08325 80.5973 9.75817C79.7978 10.4291 78.5162 10.7665 76.7526 10.7665H72.6026V2.82011ZM66.8336 0.353421V2.37016L69.4449 2.82011V21.1957L66.8336 21.6457V23.6624H75.2139V21.6457L72.6026 21.1957V13.2493H77.6646C78.9019 13.2493 79.8902 13.635 80.6294 14.4023C81.3646 15.1696 81.7342 16.19 81.7342 17.4636V19.2754C81.7342 20.4927 81.9913 21.5292 82.5095 22.3849C83.0278 23.2406 83.8996 23.6664 85.1289 23.6664H86.8283V21.6015L86.0609 21.5051C85.6431 21.4408 85.3458 21.2399 85.1651 20.8944C84.9843 20.553 84.8919 20.0227 84.8919 19.3076V17.4314C84.8919 16.0535 84.6106 14.8964 84.0522 13.9564C83.4898 13.0163 82.5738 12.3374 81.3043 11.9236C82.4774 11.4214 83.3813 10.7344 84.012 9.85861C84.6428 8.98281 84.9561 7.97846 84.9561 6.84555C84.9561 4.77257 84.2772 3.17364 82.9233 2.04877C81.5655 0.923893 79.617 0.357438 77.074 0.357438H66.8376L66.8336 0.353421ZM63.9973 23.6624V18.0702H61.3057L61.0485 21.1957H51.6759V12.8476H60.5986V10.3648H51.6759V2.82011H60.8557L61.1128 5.94565H63.8206V0.337351H45.9109V2.37016L48.5223 2.82011V21.1957L45.9109 21.6457V23.6624H63.9973ZM35.3894 0.337351V2.37016L38.0007 2.82011V18.2952L37.9043 18.3273L26.6917 0.337351H20.9227V2.37016L23.534 2.82011V21.1957L20.9227 21.6457V23.6624H29.303V21.6457L26.6917 21.1957V5.68854L26.7881 5.6564L38.0007 23.6624H41.1584V2.82011L43.7697 2.37016V0.337351H35.3934H35.3894ZM18.0864 23.6624V18.0702H15.3947L15.1376 21.1957H5.769V12.8476H14.6917V10.3648H5.769V2.82011H14.9488L15.2059 5.94565H17.9136V0.337351H0V2.37016L2.61132 2.82011V21.1957L0 21.6457V23.6624H18.0864Z" fill="white"/>
</g>
<defs>
<clipPath id="clip0_118_558">
<rect width="264.526" height="24" fill="white"/>
</clipPath>
</defs>
</svg>
