<svg width="265" height="25" viewBox="0 0 265 25" fill="none" xmlns="http://www.w3.org/2000/svg">
<g clip-path="url(#clip0_117_449)">
<path d="M243.732 0.837473V7.0524H247.304L247.496 4.44109H251.775V20.8763L249.276 21.3584V24.1625H258.95V21.3584L256.451 20.8763V4.44109H260.746L260.939 7.0524H264.526V0.837473H243.732ZM242.306 4.09157C241.354 3.01491 240.153 2.14715 238.702 1.48829C237.248 0.829438 235.621 0.504028 233.817 0.504028C230.668 0.504028 228.096 1.59275 226.112 3.77018C224.127 5.94762 223.131 8.73168 223.131 12.1184V12.9018C223.131 16.2965 224.127 19.0805 226.128 21.2499C228.125 23.4193 230.688 24.5 233.817 24.5C235.621 24.5 237.252 24.1786 238.71 23.5318C240.169 22.885 241.366 22.0173 242.306 20.9285V16.3165H238.831L238.349 19.426C237.931 19.884 237.34 20.2496 236.577 20.5147C235.814 20.7799 234.974 20.9165 234.054 20.9165C232.07 20.9165 230.531 20.1733 229.442 18.6908C228.354 17.2044 227.807 15.2801 227.807 12.9058V12.0902C227.807 9.71996 228.354 7.79562 229.45 6.32124C230.543 4.84685 232.106 4.11166 234.135 4.11166C235.087 4.11166 235.91 4.24424 236.609 4.5134C237.308 4.78257 237.887 5.14413 238.349 5.60212L238.831 8.71159H242.306V4.09961V4.09157ZM217.298 10.3065H209.399V4.44109H216.864L217.073 7.22917H220.66V0.837473H202.236V3.65769L204.719 4.13978V20.8803L202.236 21.3624V24.1666H220.692V17.7909H217.137L216.928 20.579H209.399V13.9141H217.298V10.3105V10.3065ZM186.842 4.44109H190.156C191.417 4.44109 192.37 4.75445 193.016 5.37714C193.663 6.00386 193.985 6.83948 193.985 7.88401C193.985 8.92853 193.659 9.73202 193.008 10.2864C192.358 10.8408 191.381 11.118 190.076 11.118H186.838V4.44109H186.842ZM179.679 0.837473V3.65769L182.161 4.13978V20.8803L179.679 21.3624V24.1666H189.34V21.3624L186.842 20.8803V14.7297H190.67C191.771 14.7618 192.623 15.0993 193.225 15.7461C193.828 16.3929 194.129 17.2807 194.129 18.4136V19.7434C194.129 21.045 194.439 22.1097 195.057 22.9332C195.676 23.7568 196.749 24.1666 198.279 24.1666H200.698V21.3463L200.119 21.266C199.649 21.2138 199.312 21.045 199.111 20.7598C198.906 20.4786 198.805 20.0809 198.805 19.5666V18.3815C198.805 16.9834 198.504 15.8104 197.902 14.8663C197.299 13.9222 196.307 13.2472 194.929 12.8415C196.146 12.3072 197.07 11.6081 197.701 10.7444C198.331 9.88066 198.645 8.86024 198.645 7.68314C198.645 5.54588 197.894 3.87463 196.387 2.66138C194.88 1.44812 192.803 0.841491 190.156 0.841491H179.679V0.837473ZM170.74 4.13577V20.8763L168.241 21.3584V24.1625H177.903V21.3584L175.404 20.8763V4.13577L177.903 3.65368V0.837473H168.241V3.65769L170.74 4.13978V4.13577ZM155.904 4.44109C157.579 4.44109 158.893 5.00754 159.845 6.14045C160.797 7.27336 161.271 8.73972 161.271 10.5475V14.4404C161.271 16.2683 160.797 17.7467 159.845 18.8797C158.893 20.0126 157.579 20.579 155.904 20.579H152.81V4.44109H155.904ZM148.134 0.837473H145.651V3.65769L148.134 4.13978V20.8803L145.651 21.3624V24.1666H156.145C158.997 24.1666 161.347 23.2626 163.195 21.4508C165.043 19.6389 165.967 17.3048 165.967 14.4404V10.5797C165.967 7.72733 165.043 5.39321 163.195 3.56931C161.347 1.74942 158.997 0.837473 156.145 0.837473H148.134Z" fill="#3B82F6"/>
<path d="M132.775 4.89104H132.872L136.491 14.9024H129.091L132.775 4.89104ZM121.611 24.1625H128.292V22.1458L126.528 21.8405L128.115 17.5459H137.456L138.994 21.8405L137.231 22.1458V24.1625H143.928V22.1458L142.212 21.9048L134.202 0.837473H131.494L123.338 21.9048L121.607 22.1458V24.1625H121.611ZM113.857 3.32023V21.6959L111.246 22.1458V24.1625H119.626V22.1458L117.015 21.6959V3.32023L119.626 2.87028V0.837473H111.246V2.87028L113.857 3.32023ZM107.61 13.1548H100.624V15.4769L104.453 15.6376V20.7478C103.963 21.0691 103.308 21.3624 102.496 21.6276C101.685 21.8927 100.644 22.0293 99.3706 22.0293C97.0526 22.0293 95.2327 21.1696 93.915 19.4501C92.5973 17.7307 91.9384 15.4769 91.9384 12.6888V12.271C91.9384 9.52713 92.6173 7.28943 93.9792 5.56596C95.3411 3.84249 97.2815 2.97875 99.8045 2.97875C100.841 2.97875 101.729 3.11936 102.472 3.39656C103.215 3.67376 103.846 4.0273 104.372 4.45314L105.14 7.6751H107.349V3.44879C106.453 2.56094 105.349 1.84986 104.043 1.31153C102.733 0.773195 101.215 0.504028 99.4871 0.504028C96.2491 0.504028 93.6579 1.59275 91.7094 3.77018C89.761 5.94762 88.7847 8.79596 88.7847 12.3112V12.6969C88.7847 16.188 89.769 19.0323 91.7415 21.2218C93.7141 23.4113 96.2571 24.504 99.3746 24.504C101.512 24.504 103.247 24.1867 104.581 23.5519C105.915 22.9172 106.927 22.2422 107.61 21.5271V13.1629V13.1548ZM72.6026 3.32023H77.074C78.685 3.32023 79.8781 3.67778 80.6455 4.39288C81.4128 5.10798 81.7985 6.08019 81.7985 7.30952C81.7985 8.60312 81.3967 9.58337 80.5973 10.2583C79.7978 10.9292 78.5162 11.2667 76.7526 11.2667H72.6026V3.32023ZM66.8336 0.853543V2.87028L69.4449 3.32023V21.6959L66.8336 22.1458V24.1625H75.2139V22.1458L72.6026 21.6959V13.7494H77.6646C78.9019 13.7494 79.8902 14.1351 80.6294 14.9024C81.3646 15.6697 81.7342 16.6902 81.7342 17.9637V19.7755C81.7342 20.9928 81.9913 22.0293 82.5095 22.885C83.0278 23.7407 83.8996 24.1666 85.1289 24.1666H86.8283V22.1016L86.0609 22.0052C85.6431 21.9409 85.3458 21.7401 85.1651 21.3946C84.9843 21.0531 84.8919 20.5228 84.8919 19.8077V17.9315C84.8919 16.5536 84.6106 15.3966 84.0522 14.4565C83.4898 13.5164 82.5738 12.8375 81.3043 12.4237C82.4774 11.9215 83.3813 11.2345 84.012 10.3587C84.6428 9.48294 84.9561 8.47859 84.9561 7.34568C84.9561 5.27269 84.2772 3.67376 82.9233 2.54889C81.5655 1.42401 79.617 0.85756 77.074 0.85756H66.8376L66.8336 0.853543ZM63.9973 24.1625V18.5703H61.3057L61.0485 21.6959H51.6759V13.3477H60.5986V10.8649H51.6759V3.32023H60.8557L61.1128 6.44578H63.8206V0.837473H45.9109V2.87028L48.5223 3.32023V21.6959L45.9109 22.1458V24.1625H63.9973ZM35.3894 0.837473V2.87028L38.0007 3.32023V18.7953L37.9043 18.8274L26.6917 0.837473H20.9227V2.87028L23.534 3.32023V21.6959L20.9227 22.1458V24.1625H29.303V22.1458L26.6917 21.6959V6.18866L26.7881 6.15652L38.0007 24.1625H41.1584V3.32023L43.7697 2.87028V0.837473H35.3934H35.3894ZM18.0864 24.1625V18.5703H15.3947L15.1376 21.6959H5.769V13.3477H14.6917V10.8649H5.769V3.32023H14.9488L15.2059 6.44578H17.9136V0.837473H0V2.87028L2.61132 3.32023V21.6959L0 22.1458V24.1625H18.0864Z" fill="white"/>
</g>
<defs>
<clipPath id="clip0_117_449">
<rect width="264.526" height="24" fill="white" transform="translate(0 0.5)"/>
</clipPath>
</defs>
</svg>
