<svg width="221" height="20" viewBox="0 0 221 20" fill="none" xmlns="http://www.w3.org/2000/svg">
<g clip-path="url(#clip0_118_851)">
<path d="M203.11 0.281228V5.46034H206.086L206.247 3.28424H209.813V16.9803L207.73 17.382V19.7188H215.792V17.382L213.709 16.9803V3.28424H217.288L217.449 5.46034H220.439V0.281228H203.11ZM201.922 2.99298C201.128 2.09576 200.127 1.37262 198.919 0.823578C197.707 0.274532 196.351 0.00335693 194.848 0.00335693C192.223 0.00335693 190.08 0.910622 188.427 2.72515C186.773 4.53968 185.942 6.85973 185.942 9.68196V10.3348C185.942 13.1637 186.773 15.4838 188.44 17.2916C190.104 19.0994 192.24 20 194.848 20C196.351 20 197.71 19.7322 198.925 19.1932C200.141 18.6542 201.138 17.931 201.922 17.0238V13.1805H199.026L198.624 15.7717C198.276 16.1533 197.784 16.458 197.148 16.679C196.512 16.8999 195.812 17.0137 195.045 17.0137C193.391 17.0137 192.109 16.3944 191.202 15.159C190.295 13.9203 189.839 12.3167 189.839 10.3381V9.65853C189.839 7.6833 190.295 6.07969 191.209 4.85103C192.119 3.62237 193.422 3.00972 195.112 3.00972C195.906 3.00972 196.592 3.1202 197.174 3.3445C197.757 3.56881 198.239 3.87011 198.624 4.25177L199.026 6.843H201.922V2.99967V2.99298ZM181.081 8.17209H174.5V3.28424H180.72L180.894 5.60764H183.884V0.281228H168.53V2.63141L170.599 3.03315V16.9836L168.53 17.3853V19.7221H183.91V14.4091H180.947L180.773 16.7325H174.5V11.1784H181.081V8.17544V8.17209ZM155.701 3.28424H158.463C159.515 3.28424 160.308 3.54537 160.847 4.06429C161.386 4.58655 161.654 5.2829 161.654 6.15334C161.654 7.02378 161.383 7.69335 160.84 8.15535C160.298 8.61735 159.484 8.84835 158.396 8.84835H155.698V3.28424H155.701ZM149.732 0.281228V2.63141L151.801 3.03315V16.9836L149.732 17.3853V19.7221H157.784V17.3853L155.701 16.9836V11.8581H158.892C159.809 11.8848 160.519 12.1661 161.021 12.7051C161.523 13.2441 161.774 13.9839 161.774 14.928V16.0362C161.774 17.1209 162.032 18.008 162.548 18.6944C163.063 19.3807 163.957 19.7221 165.233 19.7221H167.248V17.372L166.766 17.305C166.374 17.2615 166.093 17.1209 165.926 16.8832C165.755 16.6488 165.671 16.3174 165.671 15.8889V14.9012C165.671 13.7362 165.42 12.7586 164.918 11.9719C164.416 11.1851 163.589 10.6227 162.441 10.2846C163.455 9.83931 164.225 9.25679 164.751 8.537C165.276 7.81722 165.537 6.96687 165.537 5.98595C165.537 4.2049 164.911 2.8122 163.656 1.80115C162.4 0.790099 160.67 0.284576 158.463 0.284576H149.732V0.281228ZM142.283 3.0298V16.9803L140.201 17.382V19.7188H148.252V17.382L146.17 16.9803V3.0298L148.252 2.62806V0.281228H140.201V2.63141L142.283 3.03315V3.0298ZM129.92 3.28424C131.316 3.28424 132.41 3.75629 133.204 4.70038C133.997 5.64447 134.392 6.86643 134.392 8.37296V11.617C134.392 13.1403 133.997 14.3723 133.204 15.3164C132.41 16.2605 131.316 16.7325 129.92 16.7325H127.342V3.28424H129.92ZM123.445 0.281228H121.376V2.63141L123.445 3.03315V16.9836L121.376 17.3853V19.7221H130.121C132.498 19.7221 134.456 18.9689 135.996 17.459C137.536 15.9491 138.306 14.004 138.306 11.617V8.39974C138.306 6.02277 137.536 4.07768 135.996 2.55776C134.456 1.04119 132.498 0.281228 130.121 0.281228H123.445Z" fill="#3B82F6"/>
<path d="M110.646 3.6592H110.726L113.743 12.002H107.576L110.646 3.6592ZM101.342 19.7188H106.91V18.0382L105.44 17.7837L106.763 14.2049H114.546L115.829 17.7837L114.359 18.0382V19.7188H119.94V18.0382L118.51 17.8373L111.835 0.281228H109.578L102.782 17.8373L101.339 18.0382V19.7188H101.342ZM94.8811 2.35019V17.6632L92.705 18.0382V19.7188H99.6886V18.0382L97.5125 17.6632V2.35019L99.6886 1.97523V0.281228H92.705V1.97523L94.8811 2.35019ZM89.6752 10.5457H83.8534V12.4808L87.0438 12.6147V16.8731C86.6354 17.141 86.0897 17.3853 85.4135 17.6063C84.7372 17.8273 83.8701 17.9411 82.8088 17.9411C80.8771 17.9411 79.3606 17.2246 78.2625 15.7918C77.1644 14.3589 76.6153 12.4808 76.6153 10.1574V9.80918C76.6153 7.52261 77.1811 5.65786 78.316 4.22164C79.4509 2.78541 81.0679 2.06563 83.1704 2.06563C84.0341 2.06563 84.774 2.1828 85.3934 2.4138C86.0127 2.6448 86.5383 2.93941 86.9769 3.29428L87.6163 5.97925H89.4576V2.45732C88.7111 1.71745 87.7904 1.12488 86.7024 0.676273C85.611 0.227662 84.3455 0.00335693 82.9059 0.00335693C80.2076 0.00335693 78.0482 0.910622 76.4245 2.72515C74.8008 4.53968 73.9873 6.9133 73.9873 9.84266V10.1641C73.9873 13.0733 74.8075 15.4436 76.4513 17.2682C78.0951 19.0927 80.2143 20.0034 82.8122 20.0034C84.5932 20.0034 86.0395 19.7389 87.151 19.2099C88.2625 18.681 89.1061 18.1185 89.6752 17.5226V10.5524V10.5457ZM60.5022 2.35019H64.2283C65.5708 2.35019 66.5651 2.64815 67.2046 3.24407C67.844 3.83998 68.1654 4.65016 68.1654 5.6746C68.1654 6.7526 67.8306 7.56948 67.1644 8.13191C66.4982 8.691 65.4302 8.97222 63.9605 8.97222H60.5022V2.35019ZM55.6947 0.294619V1.97523L57.8708 2.35019V17.6632L55.6947 18.0382V19.7188H62.6783V18.0382L60.5022 17.6632V11.0412H64.7205C65.7516 11.0412 66.5751 11.3626 67.1912 12.002C67.8038 12.6415 68.1118 13.4918 68.1118 14.5531V16.0629C68.1118 17.0773 68.3261 17.9411 68.7579 18.6542C69.1898 19.3673 69.9163 19.7221 70.9407 19.7221H72.3569V18.0013L71.7174 17.921C71.3693 17.8674 71.1215 17.7 70.9709 17.4121C70.8202 17.1276 70.7432 16.6856 70.7432 16.0897V14.5263C70.7432 13.378 70.5089 12.4138 70.0435 11.6304C69.5748 10.847 68.8115 10.2812 67.7536 9.9364C68.7312 9.51792 69.4844 8.94544 70.01 8.21561C70.5356 7.48578 70.7968 6.64882 70.7968 5.70473C70.7968 3.97724 70.231 2.6448 69.1028 1.70741C67.9712 0.770012 66.3475 0.297967 64.2283 0.297967H55.698L55.6947 0.294619ZM53.3311 19.7188V15.0586H51.088L50.8738 17.6632H43.0633V10.7064H50.4988V8.63744H43.0633V2.35019H50.7131L50.9273 4.95481H53.1838V0.281228H38.2591V1.97523L40.4352 2.35019V17.6632L38.2591 18.0382V19.7188H53.3311ZM29.4911 0.281228V1.97523L31.6672 2.35019V15.2461L31.5869 15.2729L22.2431 0.281228H17.4356V1.97523L19.6116 2.35019V17.6632L17.4356 18.0382V19.7188H24.4191V18.0382L22.2431 17.6632V4.74055L22.3234 4.71377L31.6672 19.7188H34.2986V2.35019L36.4747 1.97523V0.281228H29.4945H29.4911ZM15.072 19.7188V15.0586H12.8289L12.6147 17.6632H4.8075V10.7064H12.2431V8.63744H4.8075V2.35019H12.4573L12.6716 4.95481H14.928V0.281228H0V1.97523L2.1761 2.35019V17.6632L0 18.0382V19.7188H15.072Z" fill="white"/>
</g>
<defs>
<clipPath id="clip0_118_851">
<rect width="220.439" height="20" fill="white"/>
</clipPath>
</defs>
</svg>
